<mxfile host="app.diagrams.net" modified="2023-06-22T15:14:58.527Z" agent="Mozilla/5.0 (Windows NT 10.0; Win64; x64) AppleWebKit/537.36 (KHTML, like Gecko) Chrome/114.0.0.0 Safari/537.36" etag="WzljjA_3GY_QsmE9S8Cj" version="21.3.3" type="github">
  <diagram name="Page-1" id="wUj9EaUVJzTsNzOyZuP7">
    <mxGraphModel dx="794" dy="523" grid="1" gridSize="10" guides="1" tooltips="1" connect="1" arrows="1" fold="1" page="1" pageScale="1" pageWidth="850" pageHeight="1100" math="0" shadow="0">
      <root>
        <mxCell id="0" />
        <mxCell id="1" parent="0" />
        <mxCell id="yBevCss41WFoMAWI5KWt-1" value="&lt;p style=&quot;margin:0px;margin-top:4px;text-align:center;&quot;&gt;&lt;i&gt;&amp;lt;&amp;lt;Interface&amp;gt;&amp;gt;&lt;/i&gt;&lt;br&gt;&lt;b&gt;GuiFactory&lt;/b&gt;&lt;/p&gt;&lt;hr size=&quot;1&quot;&gt;&lt;p style=&quot;margin:0px;margin-left:4px;&quot;&gt;...&lt;/p&gt;&lt;hr size=&quot;1&quot;&gt;&lt;p style=&quot;margin:0px;margin-left:4px;&quot;&gt;+ create_button(&amp;amp;self): Button&lt;br&gt;+ create_input(&amp;amp;self): Input&lt;/p&gt;" style="verticalAlign=top;align=left;overflow=fill;fontSize=12;fontFamily=Helvetica;html=1;whiteSpace=wrap;" vertex="1" parent="1">
          <mxGeometry x="359" y="200" width="190" height="130" as="geometry" />
        </mxCell>
        <mxCell id="yBevCss41WFoMAWI5KWt-2" value="&lt;p style=&quot;margin:0px;margin-top:4px;text-align:center;&quot;&gt;&lt;b&gt;WinGuiFactory&lt;/b&gt;&lt;/p&gt;&lt;hr size=&quot;1&quot;&gt;&lt;p style=&quot;margin:0px;margin-left:4px;&quot;&gt;...&lt;/p&gt;&lt;hr size=&quot;1&quot;&gt;&lt;p style=&quot;margin:0px;margin-left:4px;&quot;&gt;+ create_button(&amp;amp;self): Button&lt;br style=&quot;border-color: var(--border-color);&quot;&gt;+ create_input(&amp;amp;self): Input&lt;br&gt;&lt;/p&gt;" style="verticalAlign=top;align=left;overflow=fill;fontSize=12;fontFamily=Helvetica;html=1;whiteSpace=wrap;" vertex="1" parent="1">
          <mxGeometry x="359" y="80" width="190" height="90" as="geometry" />
        </mxCell>
        <mxCell id="yBevCss41WFoMAWI5KWt-3" value="&lt;p style=&quot;margin:0px;margin-top:4px;text-align:center;&quot;&gt;&lt;b&gt;MacGuiFactory&lt;/b&gt;&lt;/p&gt;&lt;hr size=&quot;1&quot;&gt;&lt;p style=&quot;margin:0px;margin-left:4px;&quot;&gt;...&lt;/p&gt;&lt;hr size=&quot;1&quot;&gt;&lt;p style=&quot;margin:0px;margin-left:4px;&quot;&gt;+ create_button(&amp;amp;self): Button&lt;br style=&quot;border-color: var(--border-color);&quot;&gt;+ create_input(&amp;amp;self): Input&lt;br&gt;&lt;/p&gt;" style="verticalAlign=top;align=left;overflow=fill;fontSize=12;fontFamily=Helvetica;html=1;whiteSpace=wrap;" vertex="1" parent="1">
          <mxGeometry x="359" y="360" width="190" height="90" as="geometry" />
        </mxCell>
        <mxCell id="yBevCss41WFoMAWI5KWt-4" value="Abstract&lt;br&gt;Button" style="html=1;whiteSpace=wrap;" vertex="1" parent="1">
          <mxGeometry x="200" y="250" width="110" height="50" as="geometry" />
        </mxCell>
        <mxCell id="yBevCss41WFoMAWI5KWt-5" value="Abstract&lt;br&gt;Input" style="html=1;whiteSpace=wrap;" vertex="1" parent="1">
          <mxGeometry x="50" y="250" width="110" height="50" as="geometry" />
        </mxCell>
        <mxCell id="yBevCss41WFoMAWI5KWt-7" value="WButton" style="html=1;whiteSpace=wrap;" vertex="1" parent="1">
          <mxGeometry x="200" y="130" width="110" height="50" as="geometry" />
        </mxCell>
        <mxCell id="yBevCss41WFoMAWI5KWt-8" value="WInput" style="html=1;whiteSpace=wrap;" vertex="1" parent="1">
          <mxGeometry x="50" y="130" width="110" height="50" as="geometry" />
        </mxCell>
        <mxCell id="yBevCss41WFoMAWI5KWt-9" value="MButton" style="html=1;whiteSpace=wrap;" vertex="1" parent="1">
          <mxGeometry x="200" y="380" width="110" height="50" as="geometry" />
        </mxCell>
        <mxCell id="yBevCss41WFoMAWI5KWt-10" value="MInput" style="html=1;whiteSpace=wrap;" vertex="1" parent="1">
          <mxGeometry x="50" y="380" width="110" height="50" as="geometry" />
        </mxCell>
      </root>
    </mxGraphModel>
  </diagram>
</mxfile>
